<svg width="196" height="57" viewBox="0 0 196 57" fill="none" xmlns="http://www.w3.org/2000/svg">
<path d="M8.532 29.324C7.476 28.964 6.516 28.604 5.652 28.244C4.788 27.86 4.044 27.404 3.42 26.876C2.796 26.348 2.304 25.724 1.944 25.004C1.608 24.26 1.44 23.36 1.44 22.304C1.44 20.264 2.22 18.632 3.78 17.408C5.364 16.184 7.572 15.572 10.404 15.572C11.436 15.572 12.396 15.644 13.284 15.788C14.172 15.932 14.928 16.16 15.552 16.472C16.2 16.76 16.704 17.144 17.064 17.624C17.424 18.08 17.604 18.62 17.604 19.244C17.604 19.868 17.46 20.408 17.172 20.864C16.884 21.296 16.536 21.668 16.128 21.98C15.6 21.644 14.892 21.356 14.004 21.116C13.116 20.852 12.144 20.72 11.088 20.72C10.008 20.72 9.216 20.876 8.712 21.188C8.208 21.476 7.956 21.848 7.956 22.304C7.956 22.664 8.112 22.964 8.424 23.204C8.736 23.42 9.204 23.624 9.828 23.816L11.736 24.428C13.992 25.148 15.72 26.072 16.92 27.2C18.144 28.304 18.756 29.816 18.756 31.736C18.756 33.776 17.952 35.432 16.344 36.704C14.736 37.952 12.372 38.576 9.252 38.576C8.148 38.576 7.116 38.48 6.156 38.288C5.22 38.12 4.392 37.868 3.672 37.532C2.976 37.172 2.424 36.74 2.016 36.236C1.632 35.708 1.44 35.108 1.44 34.436C1.44 33.74 1.644 33.152 2.052 32.672C2.46 32.168 2.904 31.784 3.384 31.52C4.056 32.048 4.872 32.504 5.832 32.888C6.816 33.272 7.884 33.464 9.036 33.464C10.212 33.464 11.04 33.284 11.52 32.924C12 32.564 12.24 32.144 12.24 31.664C12.24 31.184 12.048 30.824 11.664 30.584C11.28 30.32 10.74 30.068 10.044 29.828L8.532 29.324ZM27.8201 31.988C27.8201 32.612 28.0121 33.056 28.3961 33.32C28.8041 33.584 29.3681 33.716 30.0881 33.716C30.4481 33.716 30.8201 33.692 31.2041 33.644C31.5881 33.572 31.9241 33.488 32.2121 33.392C32.4281 33.656 32.6081 33.956 32.7521 34.292C32.9201 34.604 33.0041 34.988 33.0041 35.444C33.0041 36.356 32.6561 37.1 31.9601 37.676C31.2881 38.252 30.0881 38.54 28.3601 38.54C26.2481 38.54 24.6161 38.06 23.4641 37.1C22.3361 36.14 21.7721 34.58 21.7721 32.42V17.012C22.0361 16.94 22.4081 16.868 22.8881 16.796C23.3921 16.7 23.9201 16.652 24.4721 16.652C25.5281 16.652 26.3441 16.844 26.9201 17.228C27.5201 17.588 27.8201 18.368 27.8201 19.568V21.872H32.5361C32.6801 22.136 32.8121 22.472 32.9321 22.88C33.0761 23.264 33.1481 23.696 33.1481 24.176C33.1481 25.016 32.9561 25.628 32.5721 26.012C32.2121 26.372 31.7201 26.552 31.0961 26.552H27.8201V31.988ZM54.0113 29.252C54.0113 30.74 53.7833 32.072 53.3273 33.248C52.8713 34.4 52.2233 35.372 51.3833 36.164C50.5673 36.956 49.5833 37.556 48.4313 37.964C47.2793 38.372 45.9953 38.576 44.5793 38.576C43.1633 38.576 41.8793 38.36 40.7273 37.928C39.5753 37.496 38.5793 36.884 37.7393 36.092C36.9233 35.276 36.2873 34.292 35.8313 33.14C35.3753 31.988 35.1473 30.692 35.1473 29.252C35.1473 27.836 35.3753 26.552 35.8313 25.4C36.2873 24.248 36.9233 23.276 37.7393 22.484C38.5793 21.668 39.5753 21.044 40.7273 20.612C41.8793 20.18 43.1633 19.964 44.5793 19.964C45.9953 19.964 47.2793 20.192 48.4313 20.648C49.5833 21.08 50.5673 21.704 51.3833 22.52C52.2233 23.312 52.8713 24.284 53.3273 25.436C53.7833 26.588 54.0113 27.86 54.0113 29.252ZM41.4113 29.252C41.4113 30.716 41.6873 31.844 42.2393 32.636C42.8153 33.404 43.6073 33.788 44.6152 33.788C45.6233 33.788 46.3913 33.392 46.9193 32.6C47.4713 31.808 47.7473 30.692 47.7473 29.252C47.7473 27.812 47.4713 26.708 46.9193 25.94C46.3673 25.148 45.5873 24.752 44.5793 24.752C43.5713 24.752 42.7913 25.148 42.2393 25.94C41.6873 26.708 41.4113 27.812 41.4113 29.252ZM63.117 37.964C62.877 38.036 62.493 38.108 61.965 38.18C61.461 38.252 60.933 38.288 60.381 38.288C59.853 38.288 59.373 38.252 58.941 38.18C58.533 38.108 58.185 37.964 57.897 37.748C57.609 37.532 57.381 37.244 57.213 36.884C57.069 36.5 56.997 36.008 56.997 35.408V24.608C56.997 24.056 57.093 23.588 57.285 23.204C57.501 22.796 57.801 22.436 58.185 22.124C58.569 21.812 59.037 21.536 59.589 21.296C60.165 21.032 60.777 20.804 61.425 20.612C62.073 20.42 62.745 20.276 63.441 20.18C64.137 20.06 64.833 20 65.529 20C66.681 20 67.593 20.228 68.265 20.684C68.937 21.116 69.273 21.836 69.273 22.844C69.273 23.18 69.225 23.516 69.129 23.852C69.033 24.164 68.913 24.452 68.769 24.716C68.265 24.716 67.749 24.74 67.221 24.788C66.693 24.836 66.177 24.908 65.673 25.004C65.169 25.1 64.689 25.208 64.233 25.328C63.801 25.424 63.429 25.544 63.117 25.688V37.964ZM75.0963 33.536C74.8323 32.936 74.5443 32.264 74.2323 31.52C73.9443 30.776 73.6323 29.924 73.2963 28.964C72.9843 28.004 72.6483 26.912 72.2883 25.688C71.9523 24.44 71.5923 23.012 71.2083 21.404C71.5443 21.068 71.9883 20.78 72.5403 20.54C73.1163 20.276 73.7403 20.144 74.4123 20.144C75.2523 20.144 75.9483 20.324 76.5003 20.684C77.0523 21.02 77.4603 21.668 77.7243 22.628L80.5683 32.528H80.7123C81.0003 31.712 81.2763 30.824 81.5403 29.864C81.8283 28.904 82.1043 27.92 82.3683 26.912C82.6323 25.88 82.8723 24.86 83.0883 23.852C83.3283 22.82 83.5323 21.812 83.7003 20.828C84.5643 20.372 85.5123 20.144 86.5443 20.144C87.3843 20.144 88.0803 20.324 88.6323 20.684C89.1843 21.044 89.4603 21.668 89.4603 22.556C89.4603 23.204 89.3763 23.96 89.2083 24.824C89.0403 25.664 88.8123 26.564 88.5243 27.524C88.2603 28.484 87.9363 29.48 87.5523 30.512C87.1923 31.52 86.8083 32.516 86.4003 33.5C85.9923 34.484 85.5723 35.42 85.1403 36.308C84.7083 37.172 84.2883 37.952 83.8803 38.648C83.2083 39.824 82.5843 40.784 82.0083 41.528C81.4323 42.272 80.8803 42.848 80.3523 43.256C79.8243 43.688 79.2963 43.976 78.7683 44.12C78.2403 44.288 77.6883 44.372 77.1123 44.372C76.1043 44.372 75.2883 44.072 74.6643 43.472C74.0403 42.872 73.6683 42.092 73.5483 41.132C74.3163 40.532 75.0843 39.86 75.8523 39.116C76.6203 38.396 77.3163 37.652 77.9403 36.884C77.5323 36.764 77.0883 36.488 76.6083 36.056C76.1523 35.6 75.6483 34.76 75.0963 33.536ZM98.8484 29.324C97.7924 28.964 96.8324 28.604 95.9684 28.244C95.1044 27.86 94.3604 27.404 93.7364 26.876C93.1124 26.348 92.6204 25.724 92.2604 25.004C91.9244 24.26 91.7564 23.36 91.7564 22.304C91.7564 20.264 92.5364 18.632 94.0964 17.408C95.6804 16.184 97.8884 15.572 100.72 15.572C101.752 15.572 102.712 15.644 103.6 15.788C104.488 15.932 105.244 16.16 105.868 16.472C106.516 16.76 107.02 17.144 107.38 17.624C107.74 18.08 107.92 18.62 107.92 19.244C107.92 19.868 107.776 20.408 107.488 20.864C107.2 21.296 106.852 21.668 106.444 21.98C105.916 21.644 105.208 21.356 104.32 21.116C103.432 20.852 102.46 20.72 101.404 20.72C100.324 20.72 99.5324 20.876 99.0284 21.188C98.5244 21.476 98.2724 21.848 98.2724 22.304C98.2724 22.664 98.4284 22.964 98.7404 23.204C99.0524 23.42 99.5204 23.624 100.144 23.816L102.052 24.428C104.308 25.148 106.036 26.072 107.236 27.2C108.46 28.304 109.072 29.816 109.072 31.736C109.072 33.776 108.268 35.432 106.66 36.704C105.052 37.952 102.688 38.576 99.5684 38.576C98.4644 38.576 97.4324 38.48 96.4724 38.288C95.5364 38.12 94.7084 37.868 93.9884 37.532C93.2924 37.172 92.7404 36.74 92.3324 36.236C91.9484 35.708 91.7564 35.108 91.7564 34.436C91.7564 33.74 91.9604 33.152 92.3684 32.672C92.7764 32.168 93.2204 31.784 93.7004 31.52C94.3724 32.048 95.1884 32.504 96.1484 32.888C97.1324 33.272 98.2004 33.464 99.3524 33.464C100.528 33.464 101.356 33.284 101.836 32.924C102.316 32.564 102.556 32.144 102.556 31.664C102.556 31.184 102.364 30.824 101.98 30.584C101.596 30.32 101.056 30.068 100.36 29.828L98.8484 29.324ZM121.951 24.788C121.351 24.788 120.775 24.884 120.223 25.076C119.695 25.268 119.227 25.556 118.819 25.94C118.435 26.3 118.123 26.756 117.883 27.308C117.643 27.86 117.523 28.508 117.523 29.252C117.523 30.74 117.943 31.856 118.783 32.6C119.647 33.344 120.691 33.716 121.915 33.716C122.635 33.716 123.259 33.632 123.787 33.464C124.315 33.296 124.783 33.116 125.191 32.924C125.671 33.26 126.031 33.632 126.271 34.04C126.511 34.424 126.631 34.892 126.631 35.444C126.631 36.428 126.163 37.196 125.227 37.748C124.291 38.276 122.995 38.54 121.339 38.54C119.827 38.54 118.459 38.324 117.235 37.892C116.011 37.436 114.955 36.812 114.067 36.02C113.203 35.204 112.531 34.232 112.051 33.104C111.571 31.976 111.331 30.728 111.331 29.36C111.331 27.776 111.583 26.396 112.087 25.22C112.615 24.02 113.323 23.036 114.211 22.268C115.099 21.5 116.119 20.924 117.271 20.54C118.447 20.156 119.683 19.964 120.979 19.964C122.707 19.964 124.039 20.276 124.975 20.9C125.911 21.524 126.379 22.328 126.379 23.312C126.379 23.768 126.271 24.2 126.055 24.608C125.839 24.992 125.587 25.328 125.299 25.616C124.891 25.424 124.399 25.244 123.823 25.076C123.247 24.884 122.623 24.788 121.951 24.788ZM137.188 34.112C137.596 34.112 138.04 34.076 138.52 34.004C139.024 33.908 139.396 33.788 139.636 33.644V30.764L137.044 30.98C136.372 31.028 135.82 31.172 135.388 31.412C134.956 31.652 134.74 32.012 134.74 32.492C134.74 32.972 134.92 33.368 135.28 33.68C135.664 33.968 136.3 34.112 137.188 34.112ZM136.9 19.964C138.196 19.964 139.372 20.096 140.428 20.36C141.508 20.624 142.42 21.032 143.164 21.584C143.932 22.112 144.52 22.796 144.928 23.636C145.336 24.452 145.54 25.424 145.54 26.552V34.616C145.54 35.24 145.36 35.756 145 36.164C144.664 36.548 144.256 36.884 143.776 37.172C142.216 38.108 140.02 38.576 137.188 38.576C135.916 38.576 134.764 38.456 133.732 38.216C132.724 37.976 131.848 37.616 131.104 37.136C130.384 36.656 129.82 36.044 129.412 35.3C129.028 34.556 128.836 33.692 128.836 32.708C128.836 31.052 129.328 29.78 130.312 28.892C131.296 28.004 132.82 27.452 134.884 27.236L139.6 26.732V26.48C139.6 25.784 139.288 25.292 138.664 25.004C138.064 24.692 137.188 24.536 136.036 24.536C135.124 24.536 134.236 24.632 133.372 24.824C132.508 25.016 131.728 25.256 131.032 25.544C130.72 25.328 130.456 25.004 130.24 24.572C130.024 24.116 129.916 23.648 129.916 23.168C129.916 22.544 130.06 22.052 130.348 21.692C130.66 21.308 131.128 20.984 131.752 20.72C132.448 20.456 133.264 20.264 134.2 20.144C135.16 20.024 136.06 19.964 136.9 19.964ZM157.31 19.964C158.75 19.964 160.082 20.156 161.306 20.54C162.554 20.9 163.622 21.464 164.51 22.232C165.398 23 166.094 23.972 166.598 25.148C167.102 26.3 167.354 27.68 167.354 29.288C167.354 30.824 167.138 32.168 166.706 33.32C166.274 34.472 165.662 35.444 164.87 36.236C164.078 37.004 163.118 37.58 161.99 37.964C160.886 38.348 159.65 38.54 158.282 38.54C157.25 38.54 156.29 38.384 155.402 38.072V44.048C155.162 44.12 154.778 44.192 154.25 44.264C153.722 44.36 153.182 44.408 152.63 44.408C152.102 44.408 151.622 44.372 151.19 44.3C150.782 44.228 150.434 44.084 150.146 43.868C149.858 43.652 149.642 43.352 149.498 42.968C149.354 42.608 149.282 42.128 149.282 41.528V24.248C149.282 23.6 149.414 23.072 149.678 22.664C149.966 22.256 150.35 21.884 150.83 21.548C151.574 21.068 152.498 20.684 153.602 20.396C154.706 20.108 155.942 19.964 157.31 19.964ZM157.382 33.716C159.854 33.716 161.09 32.24 161.09 29.288C161.09 27.752 160.778 26.612 160.154 25.868C159.554 25.124 158.678 24.752 157.526 24.752C157.07 24.752 156.662 24.812 156.302 24.932C155.942 25.028 155.63 25.148 155.366 25.292V33.212C155.654 33.356 155.966 33.476 156.302 33.572C156.638 33.668 156.998 33.716 157.382 33.716ZM179.593 38.576C178.177 38.576 176.857 38.384 175.633 38C174.433 37.592 173.377 36.992 172.465 36.2C171.577 35.408 170.869 34.412 170.341 33.212C169.837 32.012 169.585 30.608 169.585 29C169.585 27.416 169.837 26.06 170.341 24.932C170.869 23.78 171.553 22.844 172.393 22.124C173.233 21.38 174.193 20.84 175.273 20.504C176.353 20.144 177.457 19.964 178.585 19.964C179.857 19.964 181.009 20.156 182.041 20.54C183.097 20.924 183.997 21.452 184.741 22.124C185.509 22.796 186.097 23.6 186.505 24.536C186.937 25.472 187.153 26.492 187.153 27.596C187.153 28.412 186.925 29.036 186.469 29.468C186.013 29.9 185.377 30.176 184.561 30.296L175.669 31.628C175.933 32.42 176.473 33.02 177.289 33.428C178.105 33.812 179.041 34.004 180.097 34.004C181.081 34.004 182.005 33.884 182.869 33.644C183.757 33.38 184.477 33.08 185.029 32.744C185.413 32.984 185.737 33.32 186.001 33.752C186.265 34.184 186.397 34.64 186.397 35.12C186.397 36.2 185.893 37.004 184.885 37.532C184.117 37.94 183.253 38.216 182.293 38.36C181.333 38.504 180.433 38.576 179.593 38.576ZM178.585 24.428C178.009 24.428 177.505 24.524 177.073 24.716C176.665 24.908 176.329 25.16 176.065 25.472C175.801 25.76 175.597 26.096 175.453 26.48C175.333 26.84 175.261 27.212 175.237 27.596L181.393 26.588C181.321 26.108 181.057 25.628 180.601 25.148C180.145 24.668 179.473 24.428 178.585 24.428Z" fill="black"/>
<circle cx="192.5" cy="16.5" r="3.5" fill="#F18484"/>
</svg>
